<svg xmlns="http://www.w3.org/2000/svg" width="103" height="21" viewBox="0 0 103 21">
    <g fill="none" fill-rule="nonzero">
        <path fill="#4B97D6" d="M1.386 0h7.206v11.519H0V1.386C0 .62.62 0 1.386 0zm10.27 0h7.207c.764 0 1.384.62 1.384 1.386v5.54h-8.59V0zM0 14h8.592v6.927H1.386C.62 20.927 0 20.307 0 19.542V14zm11.656-4.59h8.59v10.133c0 .765-.62 1.386-1.385 1.386h-7.205V9.409z"/>
        <g fill="#47474A">
            <path d="M41.62 16.84c-3.664 0-6.279-2.505-6.279-5.988 0-3.483 2.617-5.987 6.278-5.987 3.661 0 6.26 2.494 6.26 5.987s-2.604 5.986-6.26 5.986v.001zm0-2.922c1.733 0 2.99-1.281 2.99-3.065 0-1.783-1.257-3.064-2.99-3.064-1.735 0-3.01 1.289-3.01 3.063 0 1.774 1.274 3.059 3.01 3.059v.007zM54.949 16.84c-3.47 0-6.06-2.57-6.06-5.978 0-3.41 2.59-5.996 6.06-5.996 2.987 0 5.3 1.971 5.763 4.86H57.53c-.391-1.169-1.377-1.928-2.575-1.928-1.615 0-2.798 1.298-2.798 3.062 0 1.765 1.183 3.03 2.798 3.03 1.264 0 2.258-.826 2.578-2.09h3.212c-.434 2.997-2.755 5.031-5.796 5.031v.008zM67.714 16.84c-3.47 0-6.06-2.57-6.06-5.978 0-3.41 2.59-5.996 6.06-5.996 2.988 0 5.3 1.971 5.763 4.86h-3.182c-.39-1.169-1.377-1.928-2.575-1.928-1.615 0-2.798 1.298-2.798 3.062 0 1.765 1.183 3.03 2.798 3.03 1.264 0 2.258-.826 2.578-2.09h3.213c-.434 2.997-2.754 5.031-5.795 5.031l-.002.008zM82.445 13.827v2.723h-7.431V5.154h7.293v2.713h-4.166v1.68h3.743v2.574h-3.743v1.706zM83.985 13.738h2.937v2.813h-2.937zM88.721 7.759h3.03v8.791h-3.03V7.759zm.024-3.671h2.982v2.57h-2.982v-2.57zM93.142 12.155c0-2.726 2.066-4.683 4.93-4.683 2.863 0 4.928 1.957 4.928 4.683s-2.066 4.683-4.93 4.683c-2.863 0-4.928-1.963-4.928-4.683zm4.93 1.964c1.102 0 1.896-.802 1.896-1.964 0-1.163-.791-1.963-1.896-1.963s-1.897.802-1.897 1.964c0 1.163.792 1.964 1.897 1.964v-.001z"/>
        </g>
    </g>
</svg>
